<svg width="32" height="32" viewBox="0 0 32 32" fill="none" xmlns="http://www.w3.org/2000/svg">
<path d="M25 0.5H7C3.41015 0.5 0.5 3.41015 0.5 7V25C0.5 28.5899 3.41015 31.5 7 31.5H25C28.5899 31.5 31.5 28.5899 31.5 25V7C31.5 3.41015 28.5899 0.5 25 0.5Z" fill="white" stroke="#F8F8F8"/>
<path d="M19.2693 10C20.3232 10 21.2084 10.3478 21.925 11.0435C22.6416 11.7391 23 12.5882 23 13.5908C23 14.0818 22.8946 14.578 22.6838 15.0793C22.4731 15.5806 22.2412 16.0256 21.9883 16.4143C21.7353 16.8031 21.3085 17.3044 20.7078 17.9182C20.1071 18.532 19.6013 19.0282 19.1902 19.4067C18.7792 19.7852 18.1206 20.3632 17.2143 21.1407L16.2341 22L15.2541 21.1714C14.3688 20.3734 13.7154 19.7852 13.2939 19.4067C12.8724 19.0282 12.3612 18.532 11.7605 17.9182C11.1598 17.3044 10.733 16.8031 10.4801 16.4143C10.2272 16.0256 10.0006 15.5806 9.80035 15.0793C9.60012 14.578 9.5 14.0818 9.5 13.5908C9.5 12.5882 9.85831 11.7391 10.5749 11.0435C11.2916 10.3478 12.1663 10 13.1991 10C14.4215 10 15.4332 10.4604 16.2341 11.3811C17.0351 10.4604 18.0468 10 19.2693 10ZM16.2974 20.1893C17.3302 19.289 18.0837 18.6189 18.558 18.179C19.0322 17.7392 19.5538 17.2123 20.123 16.5985C20.692 15.9847 21.0872 15.4476 21.3085 14.9872C21.5298 14.5269 21.6405 14.0614 21.6405 13.5908C21.6405 12.9361 21.4139 12.3939 20.9608 11.9642C20.5076 11.5345 19.9438 11.3197 19.2693 11.3197C18.7634 11.3197 18.2839 11.4629 17.8308 11.7494C17.3777 12.0358 17.0562 12.4041 16.8665 12.8542H15.6019C15.4332 12.4041 15.1224 12.0358 14.6692 11.7494C14.216 11.4629 13.726 11.3197 13.1991 11.3197C12.5246 11.3197 11.966 11.5345 11.5234 11.9642C11.0808 12.3939 10.8595 12.9361 10.8595 13.5908C10.8595 14.0614 10.9649 14.5269 11.1756 14.9872C11.3864 15.4476 11.7816 15.9847 12.3612 16.5985C12.9409 17.2123 13.4678 17.7392 13.942 18.179C14.4163 18.6189 15.1592 19.289 16.1709 20.1893L16.2341 20.2507L16.2974 20.1893Z" fill="#E4E4E4"/>
</svg>
